<svg width="40" height="40" viewBox="0 0 40 40" fill="none" xmlns="http://www.w3.org/2000/svg">
<path d="M39.6069 23.8997C39.0653 22.8651 38.0425 22.2224 36.9377 22.2224C36.4159 22.2224 35.8977 22.3692 35.4394 22.6468L26.5211 28.0512C26.4046 28.1217 26.3206 28.241 26.2887 28.3806C26.1332 29.0638 25.767 30.0178 24.9068 30.682C23.9546 31.4173 22.6665 31.5704 21.097 31.1373C21.0876 31.1348 21.0782 31.1319 21.0699 31.1291L15.9252 29.4102C15.6141 29.3063 15.4397 28.9494 15.5362 28.6148C15.6136 28.3471 15.8402 28.1672 16.1003 28.1672C16.1594 28.1672 16.2186 28.1769 16.2758 28.196L21.3938 29.906C21.402 29.9086 21.4104 29.9112 21.4187 29.9135C22.6257 30.2413 23.5683 30.1501 24.2177 29.649C25.038 29.0156 25.1825 27.9022 25.1996 27.7386C25.2002 27.7334 25.2008 27.7282 25.2011 27.7229C25.2014 27.7203 25.2015 27.7188 25.2016 27.7184C25.2017 27.7167 25.2018 27.7149 25.2019 27.7133C25.2021 27.7122 25.2021 27.7111 25.2022 27.71C25.2998 26.337 24.4764 25.0693 23.2428 24.6944L23.2202 24.687C23.1826 24.6739 19.3965 23.3432 16.9841 22.6026C16.7161 22.5204 15.9776 22.3291 14.9095 22.3291C13.4158 22.3291 11.1874 22.71 9.04992 24.5281L0.179431 32.2489C-0.0234846 32.4254 -0.0594701 32.7434 0.0980069 32.9673L4.90095 39.7938C4.97883 39.9043 5.09441 39.9769 5.22213 39.9954C5.24351 39.9985 5.26488 40 5.28637 40C5.39239 40 5.49627 39.9624 5.58124 39.8919L11.7677 34.7663C11.9067 34.6512 12.0931 34.6079 12.2639 34.6512L22.2561 37.1921C22.9971 37.3805 23.7979 37.2589 24.4606 36.8569L38.4424 28.384C39.9123 27.4929 40.4347 25.4815 39.6069 23.8997Z" fill="white"/>
<path d="M34.0511 0H15.7898C15.1966 0 14.7156 0.517478 14.7156 1.15586V6.41548C14.7156 7.05386 15.1966 7.57134 15.7898 7.57134H16.191V18.7396C16.191 19.378 16.6719 19.8955 17.2652 19.8955H32.5752C33.1685 19.8955 33.6494 19.378 33.6494 18.7396V7.57122H34.051C34.6441 7.57122 35.1252 7.05374 35.1252 6.41536V1.15586C35.1253 0.517478 34.6443 0 34.0511 0ZM27.18 10.3174H22.6606C22.1868 10.3174 21.8013 9.90259 21.8013 9.39274C21.8013 8.88289 22.1868 8.46805 22.6606 8.46805H27.18C27.6538 8.46805 28.0394 8.88289 28.0394 9.39274C28.0394 9.90259 27.6538 10.3174 27.18 10.3174ZM32.9769 5.25951H32.5754H17.2652H16.864V2.31172H32.9769V5.25951Z" fill="white"/>
</svg>
