<svg width="136" height="144" viewBox="0 0 136 144" fill="none" xmlns="http://www.w3.org/2000/svg">
<g filter="url(#filter0_d_778_202)">
<rect x="4" width="128" height="130" rx="30" fill="url(#paint0_linear_778_202)" shape-rendering="crispEdges"/>
<path d="M55.45 76.15C56.5833 75.25 57.1 74.8333 57 74.9C60.2667 72.2 62.8333 69.9833 64.7 68.25C66.6 66.5167 68.2 64.7 69.5 62.8C70.8 60.9 71.45 59.05 71.45 57.25C71.45 55.8833 71.1333 54.8167 70.5 54.05C69.8667 53.2833 68.9167 52.9 67.65 52.9C66.3833 52.9 65.3833 53.3833 64.65 54.35C63.95 55.2833 63.6 56.6167 63.6 58.35H55.35C55.4167 55.5167 56.0167 53.15 57.15 51.25C58.3167 49.35 59.8333 47.95 61.7 47.05C63.6 46.15 65.7 45.7 68 45.7C71.9667 45.7 74.95 46.7167 76.95 48.75C78.9833 50.7833 80 53.4333 80 56.7C80 60.2667 78.7833 63.5833 76.35 66.65C73.9167 69.6833 70.8167 72.65 67.05 75.55H80.55V82.5H55.45V76.15Z" fill="white"/>
</g>
<defs>
<filter id="filter0_d_778_202" x="0" y="0" width="136" height="144" filterUnits="userSpaceOnUse" color-interpolation-filters="sRGB">
<feFlood flood-opacity="0" result="BackgroundImageFix"/>
<feColorMatrix in="SourceAlpha" type="matrix" values="0 0 0 0 0 0 0 0 0 0 0 0 0 0 0 0 0 0 127 0" result="hardAlpha"/>
<feOffset dy="10"/>
<feGaussianBlur stdDeviation="2"/>
<feComposite in2="hardAlpha" operator="out"/>
<feColorMatrix type="matrix" values="0 0 0 0 0 0 0 0 0 0 0 0 0 0 0 0 0 0 0.25 0"/>
<feBlend mode="normal" in2="BackgroundImageFix" result="effect1_dropShadow_778_202"/>
<feBlend mode="normal" in="SourceGraphic" in2="effect1_dropShadow_778_202" result="shape"/>
</filter>
<linearGradient id="paint0_linear_778_202" x1="112.8" y1="-5.9858e-06" x2="24.5489" y2="128.731" gradientUnits="userSpaceOnUse">
<stop stop-color="#B75CFF"/>
<stop offset="1" stop-color="#671AE4"/>
</linearGradient>
</defs>
</svg>
