<svg width="67" height="22" viewBox="0 0 67 22" fill="none" xmlns="http://www.w3.org/2000/svg">
<path d="M10.48 2.1V3.96H6.78V16H4.5V3.96H0.78V2.1H10.48ZM18.4891 4.8C19.3291 4.8 20.0757 4.98 20.7291 5.34C21.3957 5.7 21.9157 6.23333 22.2891 6.94C22.6757 7.64667 22.8691 8.5 22.8691 9.5V16H20.6091V9.84C20.6091 8.85333 20.3624 8.1 19.8691 7.58C19.3757 7.04667 18.7024 6.78 17.8491 6.78C16.9957 6.78 16.3157 7.04667 15.8091 7.58C15.3157 8.1 15.0691 8.85333 15.0691 9.84V16H12.7891V1.2H15.0691V6.26C15.4557 5.79333 15.9424 5.43333 16.5291 5.18C17.1291 4.92667 17.7824 4.8 18.4891 4.8ZM25.0173 10.44C25.0173 9.33333 25.244 8.35333 25.6973 7.5C26.164 6.64667 26.7907 5.98667 27.5773 5.52C28.3773 5.04 29.2573 4.8 30.2173 4.8C31.084 4.8 31.8373 4.97333 32.4773 5.32C33.1307 5.65333 33.6507 6.07333 34.0373 6.58V4.98H36.3373V16H34.0373V14.36C33.6507 14.88 33.124 15.3133 32.4573 15.66C31.7907 16.0067 31.0307 16.18 30.1773 16.18C29.2307 16.18 28.364 15.94 27.5773 15.46C26.7907 14.9667 26.164 14.2867 25.6973 13.42C25.244 12.54 25.0173 11.5467 25.0173 10.44ZM34.0373 10.48C34.0373 9.72 33.8773 9.06 33.5573 8.5C33.2507 7.94 32.844 7.51333 32.3373 7.22C31.8307 6.92667 31.284 6.78 30.6973 6.78C30.1107 6.78 29.564 6.92667 29.0573 7.22C28.5507 7.5 28.1373 7.92 27.8173 8.48C27.5107 9.02667 27.3573 9.68 27.3573 10.44C27.3573 11.2 27.5107 11.8667 27.8173 12.44C28.1373 13.0133 28.5507 13.4533 29.0573 13.76C29.5773 14.0533 30.124 14.2 30.6973 14.2C31.284 14.2 31.8307 14.0533 32.3373 13.76C32.844 13.4667 33.2507 13.04 33.5573 12.48C33.8773 11.9067 34.0373 11.24 34.0373 10.48ZM40.492 3.52C40.0787 3.52 39.732 3.38 39.452 3.1C39.172 2.82 39.032 2.47333 39.032 2.06C39.032 1.64667 39.172 1.3 39.452 1.02C39.732 0.739999 40.0787 0.599999 40.492 0.599999C40.892 0.599999 41.232 0.739999 41.512 1.02C41.792 1.3 41.932 1.64667 41.932 2.06C41.932 2.47333 41.792 2.82 41.512 3.1C41.232 3.38 40.892 3.52 40.492 3.52ZM41.612 4.98V16H39.332V4.98H41.612ZM54.5255 4.98L47.7655 21.18H45.4055L47.6455 15.82L43.3055 4.98H45.8455L48.9455 13.38L52.1655 4.98H54.5255ZM55.4861 10.44C55.4861 9.33333 55.7128 8.35333 56.1661 7.5C56.6328 6.64667 57.2594 5.98667 58.0461 5.52C58.8461 5.04 59.7261 4.8 60.6861 4.8C61.5528 4.8 62.3061 4.97333 62.9461 5.32C63.5994 5.65333 64.1194 6.07333 64.5061 6.58V4.98H66.8061V16H64.5061V14.36C64.1194 14.88 63.5928 15.3133 62.9261 15.66C62.2594 16.0067 61.4994 16.18 60.6461 16.18C59.6994 16.18 58.8328 15.94 58.0461 15.46C57.2594 14.9667 56.6328 14.2867 56.1661 13.42C55.7128 12.54 55.4861 11.5467 55.4861 10.44ZM64.5061 10.48C64.5061 9.72 64.3461 9.06 64.0261 8.5C63.7194 7.94 63.3128 7.51333 62.8061 7.22C62.2994 6.92667 61.7528 6.78 61.1661 6.78C60.5794 6.78 60.0328 6.92667 59.5261 7.22C59.0194 7.5 58.6061 7.92 58.2861 8.48C57.9794 9.02667 57.8261 9.68 57.8261 10.44C57.8261 11.2 57.9794 11.8667 58.2861 12.44C58.6061 13.0133 59.0194 13.4533 59.5261 13.76C60.0461 14.0533 60.5928 14.2 61.1661 14.2C61.7528 14.2 62.2994 14.0533 62.8061 13.76C63.3128 13.4667 63.7194 13.04 64.0261 12.48C64.3461 11.9067 64.5061 11.24 64.5061 10.48Z" fill="white"/>
</svg>
