<svg width="41" height="41" viewBox="0 0 41 41" fill="none" xmlns="http://www.w3.org/2000/svg">
<path fill-rule="evenodd" clip-rule="evenodd" d="M6.5 10.4804C6.5 9.41486 6.92143 8.393 7.67157 7.63958C8.42172 6.88616 9.43913 6.46289 10.5 6.46289H30.5C31.5609 6.46289 32.5783 6.88616 33.3284 7.63958C34.0786 8.393 34.5 9.41486 34.5 10.4804V26.5502C34.5 27.6157 34.0786 28.6376 33.3284 29.391C32.5783 30.1444 31.5609 30.5677 30.5 30.5677H26.06L26.306 31.55L27.914 33.165C28.1936 33.4459 28.384 33.8038 28.4612 34.1934C28.5383 34.583 28.4987 34.9868 28.3474 35.3538C28.196 35.7208 27.9397 36.0345 27.6109 36.2552C27.2821 36.476 26.8955 36.5938 26.5 36.5939H14.5C14.1045 36.5938 13.7179 36.476 13.3891 36.2552C13.0603 36.0345 12.804 35.7208 12.6526 35.3538C12.5013 34.9868 12.4617 34.583 12.5388 34.1934C12.616 33.8038 12.8064 33.4459 13.086 33.165L14.694 31.55L14.94 30.5677H10.5C9.43913 30.5677 8.42172 30.1444 7.67157 29.391C6.92143 28.6376 6.5 27.6157 6.5 26.5502V10.4804ZM18.042 24.5415H10.5V10.4804H30.5V24.5415H18.042Z" fill="white"/>
</svg>
